# xmcd CD database file
#
# Track frame offsets:
#	150
#	12950
#	26865
#	40167
#	51970
#	62895
#	74350
#	87437
#	100720
#	111540
#	131930
#	144065
#	156812
#	169935
#	185367
#	197732
#	208615
#	220927
#	234217
#	245607
#
# Disc length: 3430 seconds
#
# Revision: 0
# Processed by: cddbd v1.4PL0 Copyright (c) Steve Scherf et al.
# Submitted via: CDex 1.50beta9
#
DISCID=250d6414
DTITLE=Brian Coll - At Home In Ireland
DYEAR=1900
DGENRE=Country
TTITLE0=Freen Fields Of Ireland
TTITLE1=Old Loves Never Die
TTITLE2=Golden Dreams
TTITLE3=When I Grow Too Old To Dream
TTITLE4=The Farmer
TTITLE5=Tell Me
TTITLE6=Dream Of Me
TTITLE7=Mail Call
TTITLE8=Hello Darlin'
TTITLE9=The Roads Of Kildare
TTITLE10=Remember Me
TTITLE11=Sweet Mary And Miles In Between
TTITLE12=Hometown On The Foyle
TTITLE13=For These Are My Mountains
TTITLE14=Someday You'll Call My Name
TTITLE15=China Doll
TTITLE16=Hangin' Tree
TTITLE17=Silver Haired Daddy
TTITLE18=Dream Of Me
TTITLE19=The Hill Around Clonmel
EXTD=
EXTT0=
EXTT1=
EXTT2=
EXTT3=
EXTT4=
EXTT5=
EXTT6=
EXTT7=
EXTT8=
EXTT9=
EXTT10=
EXTT11=
EXTT12=
EXTT13=
EXTT14=
EXTT15=
EXTT16=
EXTT17=
EXTT18=
EXTT19=
PLAYORDER=
